<?xml version="1.0" encoding="iso-8859-1"?>
<!-- Generator: Adobe Illustrator 19.0.0, SVG Export Plug-In . SVG Version: 6.00 Build 0)  -->
<svg xmlns="http://www.w3.org/2000/svg" xmlns:xlink="http://www.w3.org/1999/xlink" version="1.1" id="Capa_1" x="0px" y="0px" viewBox="0 0 512.002 512.002" style="enable-background:new 0 0 512.002 512.002;" xml:space="preserve" width="512px" height="512px">
<g>
	<g>
		<path d="M469.499,106.416h-85.875l-36.317-52.752c-1.865-2.711-4.945-4.33-8.236-4.33h-166.14c-3.291,0-6.37,1.619-8.236,4.33    l-36.32,52.752h-28.129V76.424c0-5.521-4.478-10-10-10H42.501c-5.522,0-10,4.479-10,10v31.192C13.877,112.125,0,128.927,0,148.918    v254.996c0,23.438,19.065,42.504,42.501,42.504h166.692c23.235,10.436,48.979,16.25,76.057,16.25s52.823-5.814,76.058-16.25    h108.191c23.437,0,42.503-19.066,42.503-42.504V148.918C512.002,125.482,492.936,106.416,469.499,106.416z M178.188,69.334    h155.628l24.678,35.846C336,95.523,311.24,90.164,285.25,90.164c-27.08,0-52.825,5.814-76.061,16.252h-56.532L178.188,69.334z     M52.501,86.424h27.746v19.992H52.501V86.424z M42.501,426.418C30.094,426.418,20,416.322,20,403.914V148.918    c0-12.408,10.094-22.502,22.501-22.502h132.476c-46.046,33.941-75.978,88.537-75.978,150c0,61.464,29.934,116.061,75.981,150.002    H42.501z M285.25,442.668c-91.671,0-166.251-74.58-166.251-166.252s74.58-166.252,166.251-166.252    c91.673,0,166.254,74.58,166.254,166.252S376.923,442.668,285.25,442.668z M492.003,403.914h-0.001    c0,12.408-10.095,22.504-22.503,22.504h-73.977c46.048-33.941,75.982-88.538,75.982-150.002c0-61.463-29.933-116.059-75.979-150    H469.5c12.408,0,22.503,10.094,22.503,22.502V403.914z" fill="#FFFFFF"/>
	</g>
</g>
<g>
	<g>
		<path d="M75.867,388.273H58.141v-45.902c0-5.523-4.478-10-10-10c-5.522,0-10,4.477-10,10v55.902c0,5.523,4.478,10,10,10h27.727    c5.522,0,10-4.477,10-10C85.867,392.752,81.39,388.273,75.867,388.273z" fill="#FFFFFF"/>
	</g>
</g>
<g>
	<g>
		<path d="M48.141,304.554c-5.522,0-10,4.477-10,10v0.473c0,5.522,4.477,10,10,10c5.522,0,10-4.479,10-10v-0.473    C58.141,309.031,53.663,304.554,48.141,304.554z" fill="#FFFFFF"/>
	</g>
</g>
<g>
	<g>
		<path d="M285.25,130.217c-80.613,0-146.197,65.584-146.197,146.199s65.584,146.201,146.197,146.201    c80.614,0,146.198-65.586,146.198-146.201S365.864,130.217,285.25,130.217z M285.25,402.617    c-69.585,0-126.197-56.613-126.197-126.201c0-69.586,56.612-126.199,126.197-126.199c69.586,0,126.198,56.613,126.198,126.199    C411.448,346.004,354.836,402.617,285.25,402.617z" fill="#FFFFFF"/>
	</g>
</g>
<g>
	<g>
		<path d="M374.064,210.359c-14.021-18.824-33.209-32.488-55.488-39.516c-5.266-1.658-10.884,1.262-12.545,6.529    c-1.661,5.267,1.263,10.885,6.529,12.545c37.903,11.953,63.369,46.715,63.369,86.498c0,5.521,4.478,10,10,10    c5.522,0,10-4.479,10-10C395.93,252.404,388.369,229.563,374.064,210.359z" fill="#FFFFFF"/>
	</g>
</g>
<g>
	<g>
		<path d="M286.37,165.74l-1.12-0.004c-5.522,0-10,4.477-10,10c0,5.521,4.478,10,10,10l0.948,0.004c0.029,0,0.059,0,0.088,0    c5.482,0,9.95-4.42,9.998-9.914C296.331,170.305,291.893,165.789,286.37,165.74z" fill="#FFFFFF"/>
	</g>
</g>
<g>
	<g>
		<path d="M85.867,140.803c-16.542,0-30,13.459-30,30.002c0,16.541,13.458,29.998,30,29.998c16.543,0,30.001-13.457,30.001-29.998    C115.868,154.262,102.41,140.803,85.867,140.803z M85.867,180.803c-5.514,0-10-4.484-10-9.998c0-5.516,4.486-10.002,10-10.002    c5.515,0,10.001,4.486,10.001,10.002C95.868,176.318,91.382,180.803,85.867,180.803z" fill="#FFFFFF"/>
	</g>
</g>
<g>
</g>
<g>
</g>
<g>
</g>
<g>
</g>
<g>
</g>
<g>
</g>
<g>
</g>
<g>
</g>
<g>
</g>
<g>
</g>
<g>
</g>
<g>
</g>
<g>
</g>
<g>
</g>
<g>
</g>
</svg>
